<svg xmlns="http://www.w3.org/2000/svg" viewBox="0 0 1200 750" width="1200" height="750" role="img">
<defs>
<linearGradient id="bg" x1="0" y1="0" x2="1" y2="1">
<stop offset="0" stop-color="#110f0a"/><stop offset="1" stop-color="#201c10"/></linearGradient>
<linearGradient id="ac" x1="0" y1="0" x2="1" y2="0">
<stop offset="0" stop-color="#f0b429"/><stop offset=".55" stop-color="#d97706"/><stop offset="1" stop-color="#f5d488"/></linearGradient>
<linearGradient id="acv" x1="0" y1="1" x2="0" y2="0">
<stop offset="0" stop-color="#f0b429"/><stop offset="1" stop-color="#f5d488"/></linearGradient>
</defs>
<rect width="1200" height="750" fill="url(#bg)"/>
<circle cx="1050" cy="120" r="230" fill="#f5d488" opacity=".18"/>
<circle cx="180" cy="640" r="200" fill="#f0b429" opacity=".13"/><rect x="70" y="70" width="1060" height="610" rx="14" fill="#171309" stroke="#ffffff" stroke-opacity=".13"/>
<rect x="70" y="70" width="1060" height="42" rx="14" fill="#1d1812"/>
<rect x="70" y="98" width="1060" height="14" fill="#1d1812"/>
<circle cx="94" cy="91" r="6" fill="#ff5f57"/><circle cx="116" cy="91" r="6" fill="#febc2e"/><circle cx="138" cy="91" r="6" fill="#28c840"/>
<rect x="166" y="83" width="920" height="16" rx="8" fill="#ffffff" opacity=".07"/><rect x="112" y="138" width="104" height="20" rx="10" fill="url(#ac)"/><rect x="300" y="140" width="300" height="18" rx="9" fill="#ffffff" opacity=".08"/><circle cx="1064" cy="148" r="18" fill="#ffffff" opacity=".1"/><circle cx="1076" cy="138" r="9" fill="#f5d488"/><rect x="112" y="196" width="216" height="244" rx="16" fill="#ffffff" opacity=".06"/><rect x="128" y="212" width="184" height="132" rx="12" fill="url(#ac)" opacity="0.50"/><rect x="128" y="362" width="140" height="13" rx="6" fill="#ffffff" opacity=".2"/><rect x="128" y="384" width="86" height="11" rx="5" fill="#ffffff" opacity=".1"/><rect x="128" y="406" width="64" height="20" rx="10" fill="url(#ac)" opacity=".85"/><rect x="268" y="402" width="44" height="28" rx="10" fill="#ffffff" opacity=".1"/><rect x="360" y="196" width="216" height="244" rx="16" fill="#ffffff" opacity=".06"/><rect x="376" y="212" width="184" height="132" rx="12" fill="url(#ac)" opacity="0.43"/><rect x="376" y="362" width="140" height="13" rx="6" fill="#ffffff" opacity=".2"/><rect x="376" y="384" width="86" height="11" rx="5" fill="#ffffff" opacity=".1"/><rect x="376" y="406" width="64" height="20" rx="10" fill="url(#ac)" opacity=".85"/><rect x="516" y="402" width="44" height="28" rx="10" fill="#ffffff" opacity=".1"/><rect x="608" y="196" width="216" height="244" rx="16" fill="#ffffff" opacity=".06"/><rect x="624" y="212" width="184" height="132" rx="12" fill="url(#ac)" opacity="0.36"/><rect x="624" y="362" width="140" height="13" rx="6" fill="#ffffff" opacity=".2"/><rect x="624" y="384" width="86" height="11" rx="5" fill="#ffffff" opacity=".1"/><rect x="624" y="406" width="64" height="20" rx="10" fill="url(#ac)" opacity=".85"/><rect x="764" y="402" width="44" height="28" rx="10" fill="#ffffff" opacity=".1"/><rect x="856" y="196" width="216" height="244" rx="16" fill="#ffffff" opacity=".06"/><rect x="872" y="212" width="184" height="132" rx="12" fill="url(#ac)" opacity="0.29"/><rect x="872" y="362" width="140" height="13" rx="6" fill="#ffffff" opacity=".2"/><rect x="872" y="384" width="86" height="11" rx="5" fill="#ffffff" opacity=".1"/><rect x="872" y="406" width="64" height="20" rx="10" fill="url(#ac)" opacity=".85"/><rect x="1012" y="402" width="44" height="28" rx="10" fill="#ffffff" opacity=".1"/><rect x="112" y="476" width="616" height="164" rx="16" fill="#ffffff" opacity=".05"/><rect x="136" y="502" width="46" height="34" rx="9" fill="url(#ac)" opacity=".45"/><rect x="198" y="508" width="220" height="12" rx="6" fill="#ffffff" opacity=".16"/><rect x="198" y="526" width="120" height="9" rx="5" fill="#ffffff" opacity=".08"/><rect x="620" y="512" width="84" height="14" rx="7" fill="#ffffff" opacity=".2"/><rect x="136" y="548" width="46" height="34" rx="9" fill="url(#ac)" opacity=".45"/><rect x="198" y="554" width="220" height="12" rx="6" fill="#ffffff" opacity=".16"/><rect x="198" y="572" width="120" height="9" rx="5" fill="#ffffff" opacity=".08"/><rect x="620" y="558" width="84" height="14" rx="7" fill="#ffffff" opacity=".2"/><rect x="136" y="594" width="46" height="34" rx="9" fill="url(#ac)" opacity=".45"/><rect x="198" y="600" width="220" height="12" rx="6" fill="#ffffff" opacity=".16"/><rect x="198" y="618" width="120" height="9" rx="5" fill="#ffffff" opacity=".08"/><rect x="620" y="604" width="84" height="14" rx="7" fill="#ffffff" opacity=".2"/><rect x="760" y="476" width="336" height="164" rx="16" fill="#ffffff" opacity=".06"/><rect x="788" y="506" width="150" height="16" rx="8" fill="#ffffff" opacity=".2"/><rect x="788" y="542" width="280" height="12" rx="6" fill="#ffffff" opacity=".1"/><rect x="788" y="572" width="240" height="12" rx="6" fill="#ffffff" opacity=".1"/><rect x="788" y="602" width="200" height="12" rx="6" fill="#ffffff" opacity=".1"/><rect x="788" y="600" width="280" height="20" rx="10" fill="url(#ac)"/><text x="1166" y="722" text-anchor="end" font-family="ui-monospace,Menlo,monospace" font-size="20" fill="#ffffff" opacity=".3">intercom app</text>
</svg>